# xmcd CD database file generated by OrangeCD 6.0
#
# Track frame offsets:
#	150
#	19912
#	43113
#	56841
#	80222
#	97314
#	114656
#	130539
#	154168
#	177503
#	190550
#	214551
#
# Disc length: 3089 seconds
#
# Revision: 0
# Processed by: cddbd v1.5.2PL0 Copyright (c) Steve Scherf et al.
# Submitted via: OrangeCD 6.0
#
DISCID=a90c0f0c
DTITLE=Peter Green - I Got The Blues For Christmas
DYEAR=1900
DGENRE=
TTITLE0=I Got The Blues For Christmas
TTITLE1=Silent Night
TTITLE2=Joy To The World
TTITLE3=We Three Kings
TTITLE4=O Christmas Tree
TTITLE5=Christmas Always Shines
TTITLE6=Good King Wenceslas
TTITLE7=Hark The Herald Angels Sing
TTITLE8=The Georgia Peaches Blues
TTITLE9=Jingle Bells
TTITLE10='Twas The Night Before Christmas
TTITLE11=We Wish You A Merry Christmas
EXTD=
EXTT0=
EXTT1=
EXTT2=
EXTT3=
EXTT4=
EXTT5=
EXTT6=
EXTT7=
EXTT8=
EXTT9=
EXTT10=
EXTT11=
PLAYORDER=
